<svg width="157" height="21" viewBox="0 0 157 21" fill="none" xmlns="http://www.w3.org/2000/svg">
<path d="M0.99936 9.561V11.734L1.01035 11.826C1.10235 14.2577 2.13831 16.5577 3.89838 18.238C5.65844 19.9183 8.00405 20.8467 10.4373 20.826H19.6924V17.502H10.6743C9.01934 17.5015 7.4321 16.8445 6.2608 15.6753C5.08951 14.506 4.42977 12.92 4.42633 11.265V9.56502C4.42951 7.90985 5.08914 6.32346 6.26047 5.15401C7.43179 3.98456 9.01917 3.32751 10.6743 3.32699H19.6924V0.00398845H10.4373C9.18641 -0.00124327 7.94701 0.243304 6.79178 0.723227C5.63655 1.20315 4.58872 1.90883 3.70972 2.79891C2.83072 3.68899 2.13823 4.74554 1.67282 5.9067C1.20741 7.06785 0.978455 8.31022 0.99936 9.561Z" fill="white"/>
<path d="M50.198 0H46.498V17.59C46.4994 18.4475 46.8408 19.2696 47.4475 19.8757C48.0541 20.4818 48.8765 20.8225 49.734 20.823H64.108V17.499H50.198V0Z" fill="white"/>
<path d="M70.5574 0H66.8574V17.59C66.8587 18.4475 67.2002 19.2696 67.8069 19.8757C68.4136 20.4818 69.2359 20.8225 70.0934 20.823H84.4674V17.499L70.5554 17.571L70.5574 0Z" fill="white"/>
<path d="M43.5283 9.26099C43.4805 6.7909 42.4666 4.43793 40.7041 2.70667C38.9416 0.975402 36.5709 0.00372179 34.1003 0H31.0933C28.6229 0.00346037 26.2521 0.974951 24.4896 2.70605C22.7271 4.43716 21.7132 6.79002 21.6653 9.26001C21.6653 9.26001 21.6553 11.3351 21.6563 11.3721V11.4551C21.6595 12.6898 21.9061 13.9118 22.3821 15.0511C22.858 16.1905 23.554 17.2248 24.4302 18.0948C25.3064 18.9649 26.3455 19.6536 27.4882 20.1216C28.6309 20.5895 29.8546 20.8275 31.0893 20.822H34.0963C35.3311 20.8275 36.5548 20.5895 37.6975 20.1216C38.8401 19.6536 39.8793 18.9649 40.7554 18.0948C41.6316 17.2248 42.3276 16.1905 42.8036 15.0511C43.2796 13.9118 43.5262 12.6898 43.5293 11.4551L43.5283 9.26099ZM33.8643 17.499H31.3303C29.6893 17.4981 28.1145 16.8518 26.9461 15.6996C25.7776 14.5474 25.1092 12.9819 25.0853 11.3411V9.51807L25.0943 9.30103C25.1575 7.69143 25.8424 6.16911 27.0051 5.0542C28.1678 3.93929 29.7175 3.31865 31.3283 3.323H33.8623C35.4731 3.3189 37.0227 3.93958 38.1853 5.05444C39.3479 6.1693 40.0329 7.69151 40.0963 9.30103L40.1053 9.51807V11.318C40.0874 12.9623 39.4221 14.5334 38.2536 15.6904C37.0852 16.8475 35.5077 17.4973 33.8633 17.499H33.8643Z" fill="white"/>
<path d="M95.4157 17.4991C93.8826 17.498 92.4033 16.9334 91.2591 15.9129C90.1149 14.8925 89.3855 13.4871 89.2097 11.9641H102.383V8.64109H89.2427C89.4656 7.16293 90.211 5.81368 91.3435 4.83799C92.4761 3.8623 93.9209 3.3248 95.4157 3.3231H104.435V0.000100115H95.1797C93.9281 -0.00567612 92.6879 0.238552 91.532 0.718484C90.376 1.19842 89.3275 1.90446 88.448 2.79502C87.5686 3.68559 86.8758 4.74276 86.4104 5.90464C85.945 7.06653 85.7163 8.30968 85.7377 9.56114V11.7341L85.7487 11.8261C85.8404 14.2579 86.8764 16.5581 88.6365 18.2385C90.3966 19.9189 92.7423 20.8471 95.1757 20.8261H104.435V17.5011L95.4157 17.4991Z" fill="white"/>
<path d="M111.916 16.6566C111.698 16.9234 111.424 17.1384 111.112 17.2861C110.801 17.4338 110.461 17.5105 110.116 17.5106H107.451V20.8256H110.902C111.62 20.8256 112.329 20.666 112.978 20.3583C113.627 20.0506 114.199 19.6026 114.653 19.0466L118.463 14.3835L116.12 11.5156L111.916 16.6566Z" fill="white"/>
<path d="M127.777 0C127.059 2.9239e-05 126.35 0.159546 125.702 0.467041C125.053 0.774536 124.481 1.2224 124.027 1.77808L120.211 6.44604L122.553 9.31299L126.753 4.16907C126.971 3.90218 127.245 3.68701 127.557 3.53931C127.868 3.3916 128.208 3.31507 128.553 3.31506H130.964V0H127.777Z" fill="white"/>
<path d="M152.227 16.66L140.096 1.77502C139.641 1.21993 139.069 0.77278 138.42 0.465821C137.771 0.158862 137.062 -0.000271558 136.345 3.4786e-07H132.881V3.31006H135.566C135.91 3.31015 136.25 3.38667 136.562 3.53418C136.873 3.68169 137.148 3.89654 137.366 4.16309L142.451 10.3771L144.796 13.2421L149.489 19.042C149.943 19.5975 150.516 20.0451 151.164 20.3524C151.813 20.6597 152.522 20.8191 153.24 20.8191H156.417V17.509H154.027C153.683 17.5095 153.343 17.4336 153.031 17.2867C152.72 17.1399 152.445 16.9259 152.227 16.66Z" fill="white"/>
<path d="M149.49 1.78003L145.676 6.448L148.021 9.31799L152.227 4.16895C152.445 3.90217 152.719 3.68724 153.031 3.53955C153.342 3.39186 153.682 3.31509 154.027 3.31494H156.418V0H153.241C152.523 0.000193573 151.814 0.160049 151.165 0.467896C150.516 0.775742 149.944 1.22391 149.49 1.78003Z" fill="white"/>
<path d="M128.558 17.511C128.213 17.511 127.873 17.4345 127.562 17.287C127.25 17.1395 126.976 16.9247 126.758 16.6581L121.673 10.375L121.658 10.3571L114.635 1.776C114.18 1.22059 113.607 0.773205 112.958 0.466065C112.31 0.158925 111.601 -0.000298356 110.883 4.19701e-07H107.436L107.43 3.31006H110.098C110.442 3.31015 110.782 3.38667 111.094 3.53418C111.405 3.68169 111.68 3.89654 111.898 4.16309L117.663 11.2091L119.327 13.243L124.02 19.0431C124.474 19.5983 125.047 20.0457 125.696 20.3528C126.344 20.6599 127.053 20.8192 127.771 20.8191H130.971V17.509L128.558 17.511Z" fill="white"/>
<path d="M140.103 19.0433L143.909 14.3153L141.564 11.4453L137.364 16.6533C137.146 16.9202 136.871 17.1353 136.56 17.283C136.249 17.4307 135.908 17.5073 135.564 17.5073H132.879V20.8224H136.351C137.069 20.8225 137.778 20.6629 138.427 20.3552C139.076 20.0475 139.648 19.5995 140.103 19.0433Z" fill="white"/>
</svg>
